<svg width="300" height="147" viewBox="0 0 300 147" fill="none" xmlns="http://www.w3.org/2000/svg">
<path d="M11.16 36.252C9.408 36.252 7.824 35.952 6.408 35.352C5.016 34.752 3.912 33.888 3.096 32.76C2.28 31.632 1.86 30.3 1.836 28.764H7.236C7.308 29.796 7.668 30.612 8.316 31.212C8.988 31.812 9.9 32.112 11.052 32.112C12.228 32.112 13.152 31.836 13.824 31.284C14.496 30.708 14.832 29.964 14.832 29.052C14.832 28.308 14.604 27.696 14.148 27.216C13.692 26.736 13.116 26.364 12.42 26.1C11.748 25.812 10.812 25.5 9.612 25.164C7.98 24.684 6.648 24.216 5.616 23.76C4.608 23.28 3.732 22.572 2.988 21.636C2.268 20.676 1.908 19.404 1.908 17.82C1.908 16.332 2.28 15.036 3.024 13.932C3.768 12.828 4.812 11.988 6.156 11.412C7.5 10.812 9.036 10.512 10.764 10.512C13.356 10.512 15.456 11.148 17.064 12.42C18.696 13.668 19.596 15.42 19.764 17.676H14.22C14.172 16.812 13.8 16.104 13.104 15.552C12.432 14.976 11.532 14.688 10.404 14.688C9.42 14.688 8.628 14.94 8.028 15.444C7.452 15.948 7.164 16.68 7.164 17.64C7.164 18.312 7.38 18.876 7.812 19.332C8.268 19.764 8.82 20.124 9.468 20.412C10.14 20.676 11.076 20.988 12.276 21.348C13.908 21.828 15.24 22.308 16.272 22.788C17.304 23.268 18.192 23.988 18.936 24.948C19.68 25.908 20.052 27.168 20.052 28.728C20.052 30.072 19.704 31.32 19.008 32.472C18.312 33.624 17.292 34.548 15.948 35.244C14.604 35.916 13.008 36.252 11.16 36.252ZM33.2775 36.324C31.3575 36.324 29.6295 35.904 28.0935 35.064C26.5575 34.2 25.3455 32.988 24.4575 31.428C23.5935 29.868 23.1615 28.068 23.1615 26.028C23.1615 23.988 23.6055 22.188 24.4935 20.628C25.4055 19.068 26.6415 17.868 28.2015 17.028C29.7615 16.164 31.5015 15.732 33.4215 15.732C35.3415 15.732 37.0815 16.164 38.6415 17.028C40.2015 17.868 41.4255 19.068 42.3135 20.628C43.2255 22.188 43.6815 23.988 43.6815 26.028C43.6815 28.068 43.2135 29.868 42.2775 31.428C41.3655 32.988 40.1175 34.2 38.5335 35.064C36.9735 35.904 35.2215 36.324 33.2775 36.324ZM33.2775 31.932C34.1895 31.932 35.0415 31.716 35.8335 31.284C36.6495 30.828 37.2975 30.156 37.7775 29.268C38.2575 28.38 38.4975 27.3 38.4975 26.028C38.4975 24.132 37.9935 22.68 36.9855 21.672C36.0015 20.64 34.7895 20.124 33.3495 20.124C31.9095 20.124 30.6975 20.64 29.7135 21.672C28.7535 22.68 28.2735 24.132 28.2735 26.028C28.2735 27.924 28.7415 29.388 29.6775 30.42C30.6375 31.428 31.8375 31.932 33.2775 31.932ZM52.4185 9.36V36H47.3785V9.36H52.4185ZM65.7141 31.356L70.7541 16.056H76.1181L68.7381 36H62.6181L55.2741 16.056H60.6741L65.7141 31.356ZM97.4888 25.596C97.4888 26.316 97.4408 26.964 97.3448 27.54H82.7648C82.8848 28.98 83.3888 30.108 84.2768 30.924C85.1648 31.74 86.2568 32.148 87.5528 32.148C89.4248 32.148 90.7568 31.344 91.5488 29.736H96.9848C96.4088 31.656 95.3048 33.24 93.6728 34.488C92.0408 35.712 90.0368 36.324 87.6608 36.324C85.7408 36.324 84.0128 35.904 82.4768 35.064C80.9648 34.2 79.7768 32.988 78.9128 31.428C78.0728 29.868 77.6528 28.068 77.6528 26.028C77.6528 23.964 78.0728 22.152 78.9128 20.592C79.7528 19.032 80.9288 17.832 82.4408 16.992C83.9528 16.152 85.6928 15.732 87.6608 15.732C89.5568 15.732 91.2488 16.14 92.7368 16.956C94.2488 17.772 95.4128 18.936 96.2288 20.448C97.0688 21.936 97.4888 23.652 97.4888 25.596ZM92.2688 24.156C92.2448 22.86 91.7768 21.828 90.8648 21.06C89.9528 20.268 88.8368 19.872 87.5168 19.872C86.2688 19.872 85.2128 20.256 84.3488 21.024C83.5088 21.768 82.9928 22.812 82.8008 24.156H92.2688Z" fill="#5CE1E6"/>
<path d="M123.74 10.872L114.524 36H108.404L99.1876 10.872H104.588L111.5 30.852L118.376 10.872H123.74ZM125.465 25.956C125.465 23.94 125.861 22.152 126.653 20.592C127.469 19.032 128.561 17.832 129.929 16.992C131.321 16.152 132.869 15.732 134.573 15.732C136.061 15.732 137.357 16.032 138.461 16.632C139.589 17.232 140.489 17.988 141.161 18.9V16.056H146.237V36H141.161V33.084C140.513 34.02 139.613 34.8 138.461 35.424C137.333 36.024 136.025 36.324 134.537 36.324C132.857 36.324 131.321 35.892 129.929 35.028C128.561 34.164 127.469 32.952 126.653 31.392C125.861 29.808 125.465 27.996 125.465 25.956ZM141.161 26.028C141.161 24.804 140.921 23.76 140.441 22.896C139.961 22.008 139.313 21.336 138.497 20.88C137.681 20.4 136.805 20.16 135.869 20.16C134.933 20.16 134.069 20.388 133.277 20.844C132.485 21.3 131.837 21.972 131.333 22.86C130.853 23.724 130.613 24.756 130.613 25.956C130.613 27.156 130.853 28.212 131.333 29.124C131.837 30.012 132.485 30.696 133.277 31.176C134.093 31.656 134.957 31.896 135.869 31.896C136.805 31.896 137.681 31.668 138.497 31.212C139.313 30.732 139.961 30.06 140.441 29.196C140.921 28.308 141.161 27.252 141.161 26.028ZM156.2 19.152C156.848 18.096 157.688 17.268 158.72 16.668C159.776 16.068 160.976 15.768 162.32 15.768V21.06H160.988C159.404 21.06 158.204 21.432 157.388 22.176C156.596 22.92 156.2 24.216 156.2 26.064V36H151.16V16.056H156.2V19.152ZM184.254 25.596C184.254 26.316 184.206 26.964 184.11 27.54H169.53C169.65 28.98 170.154 30.108 171.042 30.924C171.93 31.74 173.022 32.148 174.318 32.148C176.19 32.148 177.522 31.344 178.314 29.736H183.75C183.174 31.656 182.07 33.24 180.438 34.488C178.806 35.712 176.802 36.324 174.426 36.324C172.506 36.324 170.778 35.904 169.242 35.064C167.73 34.2 166.542 32.988 165.678 31.428C164.838 29.868 164.418 28.068 164.418 26.028C164.418 23.964 164.838 22.152 165.678 20.592C166.518 19.032 167.694 17.832 169.206 16.992C170.718 16.152 172.458 15.732 174.426 15.732C176.322 15.732 178.014 16.14 179.502 16.956C181.014 17.772 182.178 18.936 182.994 20.448C183.834 21.936 184.254 23.652 184.254 25.596ZM179.034 24.156C179.01 22.86 178.542 21.828 177.63 21.06C176.718 20.268 175.602 19.872 174.282 19.872C173.034 19.872 171.978 20.256 171.114 21.024C170.274 21.768 169.758 22.812 169.566 24.156H179.034Z" fill="white"/>
</svg>
